<?xml version="1.0" encoding="utf-8"?>
<?xml-stylesheet type="text/xsl" href="rss1.xsl"?>
<rss version="2.0" xmlns:atom="http://www.w3.org/2005/Atom" xmlns:content="http://purl.org/rss/1.0/modules/content/" xmlns:dc="http://purl.org/dc/elements/1.1/" xmlns:media="http://search.yahoo.com/mrss/">
<channel>
 <title>Getty</title>
 <link>http://www.gettyimg.com/</link>
 <atom:link href="http://www.gettyimg.com/" rel="self" type="application/rss+xml" />

 
                <item>
                <title><![CDATA[【Actresses】Monica Bellucci : Hot Wallpapers x 9]]></title>
                <link><![CDATA[https://sharemania.us/threads/monica-bellucci-hot-wallpapers-x-9.242882/]]></link>
                <description><![CDATA[<article>
<blockquote class="messageText SelectQuoteContainer ugc baseHtml">
<a href="https://www.imagebam.com/view/MET5BP9" target="_blank" class="externalLink" rel="nofollow"><img src="https://thumbs4.imagebam.com/05/e5/76/MET5BP9_t.jpg" class="bbCodeImage LbImage" alt="[​IMG]" data-url="https://thumbs4.imagebam.com/05/e5/76/MET5BP9_t.jpg"></a> <a href="https://www.imagebam.com/view/MET5BPB" target="_blank" class="externalLink" rel="nofollow"><img src="https://thumbs4.imagebam.com/92/2e/f5/MET5BPB_t.jpg" class="bbCodeImage LbImage" alt="[​IMG]" data-url="https://thumbs4.imagebam.com/92/2e/f5/MET5BPB_t.jpg"></a> <a href="https://www.imagebam.com/view/MET5BPC" target="_blank" class="externalLink" rel="nofollow"><img src="https://thumbs4.imagebam.com/b6/cf/06/MET5BPC_t.jpg" class="bbCodeImage LbImage" alt="[​IMG]" data-url="https://thumbs4.imagebam.com/b6/cf/06/MET5BPC_t.jpg"></a> <a href="https://www.imagebam.com/view/MET5BPD" target="_blank" class="externalLink" rel="nofollow"><img src="https://thumbs4.imagebam.com/7b/85/46/MET5BPD_t.jpg" class="bbCodeImage LbImage" alt="[​IMG]" data-url="https://thumbs4.imagebam.com/7b/85/46/MET5BPD_t.jpg"></a> <a href="https://www.imagebam.com/view/MET5BPF" target="_blank" class="externalLink" rel="nofollow"><img src="https://thumbs4.imagebam.com/f6/94/06/MET5BPF_t.jpg" class="bbCodeImage LbImage" alt="[​IMG]" data-url="https://thumbs4.imagebam.com/f6/94/06/MET5BPF_t.jpg"></a> <a href="https://www.imagebam.com/view/MET5BPI" target="_blank" class="externalLink" rel="nofollow"><img src="https://thumbs4.imagebam.com/59/31/cc/MET5BPI_t.jpg" class="bbCodeImage LbImage" alt="[​IMG]" data-url="https://thumbs4.imagebam.com/59/31/cc/MET5BPI_t.jpg"></a> <a href="https://www.imagebam.com/view/MET5BPJ" target="_blank" class="externalLink" rel="nofollow"><img src="https://thumbs4.imagebam.com/bb/e9/0b/MET5BPJ_t.jpg" class="bbCodeImage LbImage" alt="[​IMG]" data-url="https://thumbs4.imagebam.com/bb/e9/0b/MET5BPJ_t.jpg"></a> <a href="https://www.imagebam.com/view/MET5BPN" target="_blank" class="externalLink" rel="nofollow"><img src="https://thumbs4.imagebam.com/eb/9e/09/MET5BPN_t.jpg" class="bbCodeImage LbImage" alt="[​IMG]" data-url="https://thumbs4.imagebam.com/eb/9e/09/MET5BPN_t.jpg"></a> <a href="https://www.imagebam.com/view/MET5BPP" target="_blank" class="externalLink" rel="nofollow"><img src="https://thumbs4.imagebam.com/09/27/55/MET5BPP_t.jpg" class="bbCodeImage LbImage" alt="[​IMG]" data-url="https://thumbs4.imagebam.com/09/27/55/MET5BPP_t.jpg"></a> <br>
<br>
<a href="https://www.imagebam.com/view/GAB5N6" target="_blank" class="externalLink" rel="nofollow">https://www.imagebam.com/view/GAB5N6</a>
<div class="messageTextEndMarker">&nbsp;</div>
</blockquote>
</article>]]></description>
                <author><![CDATA[Alpha]]></author>
                </item>

                
                <item>
                <title><![CDATA[【Apple Music】WEB-RiP - P!nk - All Out Of Fight [Apple HD Music Video]]]></title>
                <link><![CDATA[https://sharemania.us/threads/p-nk-all-out-of-fight-apple-hd-music-video.242883/]]></link>
                <description><![CDATA[<article>
<blockquote class="messageText SelectQuoteContainer ugc baseHtml">
<span style="font-size: 22px"><b>P!nk - All Out Of Fight [Apple HD Music Video]</b></span><br>
<br>
<img src="https://imgur.com/DLdt23O.jpg" class="bbCodeImage LbImage" alt="[​IMG]" data-url="https://imgur.com/DLdt23O.jpg" style=""><br>
<br>
<div class="bbCodeBlock bbCodeCode">
<div class="type">Code:</div>
<pre>General
Format                         : MPEG-4
Codec ID                       : M4V  (isom/iso4/M4V /mp42)
File size                      : 272 MiB
Duration                       : 3 min 39 s
Overall bit rate mode          : Variable
Overall bit rate               : 10.4 Mb/s
Movie name                     : All Out Of Fight
Performer                      : P!nk
Genre                          : Pop
ContentType                    : Music Video
Recorded date                  : UTC 2023-12-09 08:00:00
Encoded date                   : UTC 2024-04-22 20:55:54
Tagged date                    : UTC 2024-04-22 20:55:54
Copyright                      : ℗ (C) 2023 RCA Records, a division of Sony Music Entertainment
Cover                          : Yes
Rating                         : None
GenreID                        : 1614
AppleStoreCountry              : United Kingdom
AlbumTitleID                   : 4488522
AppleStoreCatalogID            : 1719882049

Video
ID                             : 2
Format                         : AVC
Format/Info                    : Advanced Video Codec
Format profile                 : High@L4
Format settings                : CABAC / 4 Ref Frames
Format settings, CABAC         : Yes
Format settings, Reference fra : 4 frames
Codec ID                       : avc1
Codec ID/Info                  : Advanced Video Coding
Duration                       : 3 min 39 s
Duration_FirstFrame            : 42 ms
Bit rate                       : 10.1 Mb/s
Maximum bit rate               : 17.1 Mb/s
Width                          : 1 620 pixels
Height                         : 1 080 pixels
Display aspect ratio           : 3:2
Frame rate mode                : Constant
Frame rate                     : 24.000 FPS
Color space                    : YUV
Chroma subsampling             : 4:2:0
Bit depth                      : 8 bits
Scan type                      : Progressive
Bits/(Pixel*Frame)             : 0.241
Stream size                    : 264 MiB (97%)
Title                          : Core Media Video
Language                       : English
Encoded date                   : UTC 2024-02-15 06:29:50
Tagged date                    : UTC 2024-04-22 20:55:56
Color range                    : Limited
Color primaries                : BT.709
Transfer characteristics       : BT.709
Matrix coefficients            : BT.709
Codec configuration box        : avcC

Audio
ID                             : 1
Format                         : AAC LC
Format/Info                    : Advanced Audio Codec Low Complexity
Codec ID                       : mp4a-40-2
Duration                       : 3 min 39 s
Duration_LastFrame             : -14 ms
Bit rate mode                  : Variable
Bit rate                       : 265 kb/s
Maximum bit rate               : 372 kb/s
Channel(s)                     : 2 channels
Channel layout                 : L R
Sampling rate                  : 48.0 kHz
Frame rate                     : 46.875 FPS (1024 SPF)
Compression mode               : Lossy
Stream size                    : 6.84 MiB (3%)
Title                          : Core Media Audio
Encoded date                   : UTC 2024-02-15 06:29:27
Tagged date                    : UTC 2024-04-22 20:55:56

Text
ID                             : 3
Format                         : EIA-608
Codec ID                       : c608
Duration                       : 3 min 33 s
Bit rate mode                  : Variable
Bit rate                       : 119 b/s
Maximum bit rate               : 1 280 b/s
Frame rate                     : 0.360 FPS
Stream size                    : 3.09 KiB (0%)
Title                          : Core Media Closed Caption
Language                       : English
Forced                         : No
Encoded date                   : UTC 2024-02-15 06:29:50
Tagged date                    : UTC 2024-04-22 20:55:56
</pre>
</div>
<div class="bbCodeBlock bbCodeVfcHH HiddenContent">
<div class="attribution type">Hidden Content:</div>
<blockquote>You must reply before you can see the hidden data contained here.</blockquote>
</div>
<div class="messageTextEndMarker">&nbsp;</div>
</blockquote>
</article>]]></description>
                <author><![CDATA[Mu$iC @$YLUM]]></author>
                </item>

                </channel></rss>